<?xml version="1.0" encoding="UTF-8" standalone="no" ?>
<!DOCTYPE svg PUBLIC "-//W3C//DTD SVG 1.1//EN" "http://www.w3.org/Graphics/SVG/1.1/DTD/svg11.dtd">
<svg xmlns="http://www.w3.org/2000/svg" xmlns:xlink="http://www.w3.org/1999/xlink" version="1.1" width="232.06824218749995" height="95.70127999999997" xml:space="preserve">
<desc>Created with Fabric.js 1.6.0-rc.1</desc>
<defs></defs>
  <g transform="translate(111.5 44.83) scale(0.83 0.63)">
   <text font-family="ADAMCG PRO" font-size="40" font-weight="normal" style="stroke: none; stroke-width: 1; stroke-dasharray: none; stroke-linecap: butt; stroke-linejoin: miter; stroke-miterlimit: 10; fill: #0a0a0a; fill-rule: nonzero; opacity: 1;" ><tspan x="-37.71" y="8.98" style="stroke: none; stroke-width: 0; stroke-dasharray: none; stroke-linecap: butt; stroke-linejoin: miter; stroke-miterlimit: 4; fill: #0a0a0a; fill-rule: ; opacity: 1;">D</tspan><tspan x="-10.71" y="8.98" style="stroke: none; stroke-width: 0; stroke-dasharray: none; stroke-linecap: butt; stroke-linejoin: miter; stroke-miterlimit: 4; fill: #0a0a0a; fill-rule: ; opacity: 1;">H</tspan><tspan x="16.59" y="8.98" style="stroke: none; stroke-width: 0; stroke-dasharray: none; stroke-linecap: butt; stroke-linejoin: miter; stroke-miterlimit: 4; fill: #0a0a0a; fill-rule: ; opacity: 1;">S</tspan></text>
 </g>
  <g transform="translate(41.48 65.39) scale(0.84 0.79)">
   <text font-family="Open Sans" font-size="40" font-weight="normal" style="stroke: none; stroke-width: 1; stroke-dasharray: none; stroke-linecap: butt; stroke-linejoin: miter; stroke-miterlimit: 10; fill: #00065e; fill-rule: nonzero; opacity: 1;" ><tspan x="-36.97" y="8.98" style="stroke: none; stroke-width: 0; stroke-dasharray: none; stroke-linecap: butt; stroke-linejoin: miter; stroke-miterlimit: 4; fill: #00065e; fill-rule: ; opacity: 1;">C</tspan><tspan x="-11.74" y="8.98" style="stroke: none; stroke-width: 0; stroke-dasharray: none; stroke-linecap: butt; stroke-linejoin: miter; stroke-miterlimit: 4; fill: #00065e; fill-rule: ; opacity: 1;">o</tspan><tspan x="12.42" y="8.98" style="stroke: none; stroke-width: 0; stroke-dasharray: none; stroke-linecap: butt; stroke-linejoin: miter; stroke-miterlimit: 4; fill: #00065e; fill-rule: ; opacity: 1;">n</tspan></text>
 </g>
<g style="stroke: none; stroke-width: 1; stroke-dasharray: none; stroke-linecap: butt; stroke-linejoin: miter; stroke-miterlimit: 10; fill: none; fill-rule: nonzero; opacity: 1;" transform="translate(65 10) scale(0.92 0.8)" >
  <path d="M 21.78 39.231 c 0.196 0.106 17.232 -19.775 36.559 -38.316 c 0.481 -0.297 0.418 -0.525 1.61 -0.912 c 1.229 -0.042 1.572 0.446 1.992 0.629 c 0.772 0.512 1.452 1.031 2.104 1.569 c 1.316 1.067 2.563 2.162 3.784 3.262 c 2.442 2.2 4.788 4.417 7.042 6.577 c 4.507 4.319 8.652 8.426 12.21 11.971 c 7.106 7.094 11.843 11.962 12.028 12.155 c 0.727 0.776 0.519 2.149 -0.465 3.065 c -0.985 0.914 -2.364 1.029 -3.085 0.257 c -0.184 -0.19 -4.686 -5.253 -11.441 -12.64 c -3.38 -3.69 -7.321 -7.964 -11.599 -12.462 c -2.141 -2.245 -4.365 -4.549 -6.667 -6.821 c -1.15 -1.139 -2.324 -2.268 -3.521 -3.335 c -0.595 -0.538 -1.21 -1.047 -1.799 -1.478 c -0.298 -0.429 -0.586 0.151 -0.301 -0.75 c 0.534 0.794 -0.272 0.455 -0.423 0.849 C 40.133 20.086 21.872 39.428 21.78 39.231" style="stroke: none; stroke-width: 1; stroke-dasharray: none; stroke-linecap: butt; stroke-linejoin: miter; stroke-miterlimit: 10; fill: #000652; fill-rule: nonzero; opacity: 1;" transform=" matrix(1 0 0 1 0 0) " stroke-linecap="round" />
  <path d="M 77.763 39.231 c -0.196 0.106 -17.233 -19.775 -36.557 -38.316 c -0.483 -0.297 -0.42 -0.525 -1.611 -0.912 c -1.229 -0.042 -1.573 0.446 -1.993 0.629 c -0.772 0.512 -1.451 1.031 -2.104 1.569 c -1.316 1.067 -2.563 2.162 -3.784 3.262 c -2.443 2.2 -4.788 4.417 -7.044 6.577 c -4.506 4.319 -8.651 8.426 -12.208 11.971 C 5.355 31.104 0.619 35.972 0.434 36.166 c -0.728 0.776 -0.519 2.149 0.465 3.065 c 0.985 0.914 2.363 1.029 3.085 0.257 c 0.184 -0.19 4.685 -5.253 11.441 -12.64 c 3.38 -3.69 7.321 -7.964 11.599 -12.462 c 2.141 -2.245 4.365 -4.549 6.667 -6.821 c 1.15 -1.139 2.324 -2.268 3.521 -3.335 c 0.595 -0.538 1.21 -1.047 1.799 -1.478 c 0.297 -0.429 0.586 0.151 0.301 -0.75 c -0.534 0.794 0.272 0.455 0.422 0.849 C 59.411 20.086 77.672 39.428 77.763 39.231" style="stroke: none; stroke-width: 1; stroke-dasharray: none; stroke-linecap: butt; stroke-linejoin: miter; stroke-miterlimit: 10; fill: #121111; fill-rule: nonzero; opacity: 1;" transform=" matrix(1 0 0 1 0 0) " stroke-linecap="round" />
</g>
  <g transform="translate(111.87 65.86) scale(0.47 0.7)">
   <text font-family="Republika II Exp" font-size="40" font-weight="normal" style="stroke: none; stroke-width: 1; stroke-dasharray: none; stroke-linecap: butt; stroke-linejoin: miter; stroke-miterlimit: 10; fill: #080808; fill-rule: nonzero; opacity: 1;" ><tspan x="-80.04" y="8.98" style="stroke: none; stroke-width: 0; stroke-dasharray: none; stroke-linecap: butt; stroke-linejoin: miter; stroke-miterlimit: 4; fill: #080808; fill-rule: ; opacity: 1;">s</tspan><tspan x="-48.2" y="8.98" style="stroke: none; stroke-width: 0; stroke-dasharray: none; stroke-linecap: butt; stroke-linejoin: miter; stroke-miterlimit: 4; fill: #080808; fill-rule: ; opacity: 1;">t</tspan><tspan x="-26.8" y="8.98" style="stroke: none; stroke-width: 0; stroke-dasharray: none; stroke-linecap: butt; stroke-linejoin: miter; stroke-miterlimit: 4; fill: #080808; fill-rule: ; opacity: 1;">r</tspan><tspan x="-4.84" y="8.98" style="stroke: none; stroke-width: 0; stroke-dasharray: none; stroke-linecap: butt; stroke-linejoin: miter; stroke-miterlimit: 4; fill: #080808; fill-rule: ; opacity: 1;">u</tspan><tspan x="28.36" y="8.98" style="stroke: none; stroke-width: 0; stroke-dasharray: none; stroke-linecap: butt; stroke-linejoin: miter; stroke-miterlimit: 4; fill: #080808; fill-rule: ; opacity: 1;">c</tspan><tspan x="58.64" y="8.98" style="stroke: none; stroke-width: 0; stroke-dasharray: none; stroke-linecap: butt; stroke-linejoin: miter; stroke-miterlimit: 4; fill: #080808; fill-rule: ; opacity: 1;">t</tspan></text>
 </g>
  <g transform="translate(187.07 64.31) scale(0.91 0.75)">
   <text font-family="Open Sans" font-size="40" font-weight="normal" style="stroke: none; stroke-width: 1; stroke-dasharray: none; stroke-linecap: butt; stroke-linejoin: miter; stroke-miterlimit: 10; fill: #00065e; fill-rule: nonzero; opacity: 1;" ><tspan x="-38.96" y="8.98" style="stroke: none; stroke-width: 0; stroke-dasharray: none; stroke-linecap: butt; stroke-linejoin: miter; stroke-miterlimit: 4; fill: #00065e; fill-rule: ; opacity: 1;">i</tspan><tspan x="-28.84" y="8.98" style="stroke: none; stroke-width: 0; stroke-dasharray: none; stroke-linecap: butt; stroke-linejoin: miter; stroke-miterlimit: 4; fill: #00065e; fill-rule: ; opacity: 1;">o</tspan><tspan x="-4.68" y="8.98" style="stroke: none; stroke-width: 0; stroke-dasharray: none; stroke-linecap: butt; stroke-linejoin: miter; stroke-miterlimit: 4; fill: #00065e; fill-rule: ; opacity: 1;">n</tspan><tspan x="19.87" y="8.98" style="stroke: none; stroke-width: 0; stroke-dasharray: none; stroke-linecap: butt; stroke-linejoin: miter; stroke-miterlimit: 4; fill: #00065e; fill-rule: ; opacity: 1;">s</tspan></text>
 </g>
</svg>